<?xml version="1.0" encoding="UTF-8"?>
<!DOCTYPE svg PUBLIC "-//W3C//DTD SVG 1.1//EN" "http://www.w3.org/Graphics/SVG/1.1/DTD/svg11.dtd">
<!-- Creator: CorelDRAW 2021 (64-Bit) -->
<svg xmlns="http://www.w3.org/2000/svg" xml:space="preserve" width="2480px" height="3508px" version="1.1" style="shape-rendering:geometricPrecision; text-rendering:geometricPrecision; image-rendering:optimizeQuality; fill-rule:evenodd; clip-rule:evenodd"
viewBox="0 0 2480 3507.43"
 xmlns:xlink="http://www.w3.org/1999/xlink"
 xmlns:xodm="http://www.corel.com/coreldraw/odm/2003">
 <defs>
  <style type="text/css">
   <![CDATA[
    .fil1 {fill:#151515;fill-rule:nonzero}
    .fil0 {fill:white;fill-rule:nonzero}
   ]]>
  </style>
 </defs>
 <g id="Layer_x0020_1">
  <metadata id="CorelCorpID_0Corel-Layer"/>
  <g id="_2005614970176">
   <polygon class="fil0" points="321.97,1736.55 321.97,1416.59 418.36,1416.59 444.76,1537.77 449.96,1683.75 460.36,1683.75 465.15,1537.77 491.95,1416.59 587.94,1416.59 587.94,1736.55 527.95,1736.55 527.95,1638.16 539.55,1469.38 528.75,1469.38 511.95,1642.16 487.15,1736.55 422.76,1736.55 398.36,1642.16 381.17,1469.38 370.77,1469.38 381.97,1638.16 381.97,1736.55 "/>
   <path id="_1" class="fil0" d="M703.12 1740.55c-29.32,0 -50.59,-6.2 -63.65,-18.6 -13.14,-12.4 -20.07,-33 -20.73,-61.79 -0.27,-13.07 -0.47,-26.67 -0.6,-40.8 -0.14,-14.13 -0.2,-28.46 -0.2,-42.99 0,-14.53 0.06,-28.87 0.2,-43 0.13,-14.13 0.33,-27.73 0.6,-40.79 0.66,-28.67 7.59,-49.2 20.73,-61.53 13.06,-12.33 34.33,-18.46 63.65,-18.46 29.47,0 50.6,6.13 63.4,18.46 12.8,12.33 19.66,32.86 20.59,61.53 0.54,13.33 0.94,27.06 1.2,41.19 0.27,14.13 0.4,28.4 0.4,42.86 0,14.47 -0.13,28.8 -0.4,42.8 -0.26,14.06 -0.66,27.66 -1.2,40.73 -0.93,28.79 -7.79,49.39 -20.59,61.79 -12.8,12.4 -33.93,18.6 -63.4,18.6zm0 -48.8c7.87,0 13.8,-1.8 17.8,-5.33 4,-3.47 6.07,-8.53 6.2,-15.07 0.67,-13.59 1.14,-28.52 1.4,-44.79 0.27,-16.26 0.4,-32.99 0.4,-50.19 0,-17.2 -0.13,-33.93 -0.4,-50.2 -0.26,-16.26 -0.73,-31.19 -1.4,-44.79 -0.13,-6.4 -2.26,-11.33 -6.4,-14.8 -4.13,-3.47 -10,-5.2 -17.6,-5.2 -7.59,0 -13.46,1.73 -17.66,5.2 -4.2,3.47 -6.46,8.4 -6.73,14.8 -0.54,13.6 -0.93,28.53 -1.27,44.79 -0.33,16.27 -0.53,33 -0.53,50.2 0,17.2 0.2,33.93 0.53,50.19 0.34,16.27 0.73,31.2 1.27,44.79 0.27,6.54 2.53,11.6 6.73,15.07 4.2,3.53 10.07,5.33 17.66,5.33z"/>
   <path id="_2" class="fil0" d="M818.51 1736.55l0 -319.96 81.19 0c30,0 51.73,6.33 65.13,19.06 13.39,12.73 20.33,33.73 20.86,62.93 0.4,18.53 0.67,36.13 0.8,52.79 0.13,16.66 0.13,33.33 0,49.99 -0.13,16.67 -0.4,34.27 -0.8,52.8 -0.53,29.33 -7.47,50.39 -20.86,63.19 -13.4,12.8 -35.13,19.2 -65.13,19.2l-81.19 0zm59.99 -52.8l21.2 0c8.4,0 14.8,-1.93 19.2,-5.8 4.4,-3.86 6.66,-9.39 6.8,-16.59 0.4,-14.27 0.66,-28.47 0.93,-42.6 0.13,-14.13 0.27,-28.26 0.27,-42.39 0,-14.13 -0.14,-28.33 -0.27,-42.53 -0.27,-14.13 -0.53,-28.33 -0.93,-42.46 -0.14,-7.07 -2.4,-12.47 -6.8,-16.33 -4.4,-3.74 -10.8,-5.67 -19.2,-5.67l-21.2 0 0 214.37z"/>
   <polygon id="_3" class="fil0" points="1016.49,1736.55 1016.49,1416.59 1154.87,1416.59 1154.87,1469.38 1076.48,1469.38 1076.48,1547.37 1150.87,1547.37 1150.87,1600.16 1076.48,1600.16 1076.48,1683.75 1154.87,1683.75 1154.87,1736.55 "/>
   <path id="_4" class="fil0" d="M1179.67 1736.55l0 -319.96 77.18 0c29.87,0 51.47,6 64.73,18.06 13.26,12.07 20.33,32.06 21.26,59.93 0.27,7.46 0.47,14 0.54,19.59 0.06,5.6 0.06,11.2 0,16.8 -0.07,5.6 -0.27,12.13 -0.54,19.6 -0.53,17.33 -3.4,31.53 -8.66,42.59 -5.27,11.07 -13.47,19.54 -24.53,25.4l37.59 117.99 -63.59 0 -30.39 -107.99 -13.6 0 0 107.99 -59.99 0zm59.99 -160.78l17.19 0c8.4,0 14.74,-1.94 19,-5.8 4.27,-3.87 6.6,-9.27 7,-16.2 0.4,-6.53 0.67,-13.4 0.8,-20.53 0.13,-7.07 0.13,-14.2 0,-21.4 -0.13,-7.06 -0.4,-13.93 -0.8,-20.46 -0.4,-7.07 -2.73,-12.47 -7,-16.33 -4.26,-3.74 -10.6,-5.67 -19,-5.67l-17.19 0 0 106.39z"/>
   <path id="_5" class="fil0" d="M309.98 2090.97l44.39 -319.96 94.39 0 44.39 319.96 -61.59 0 -6.8 -66.8 -46.39 0 -6.8 66.8 -61.59 0zm73.99 -119.59l35.19 0 -7.2 -70.79 -4.8 -76.79 -11.2 0 -4.8 76.79 -7.19 70.79z"/>
   <path id="_6" class="fil0" d="M513.15 2090.97l0 -319.96 77.19 0c29.86,0 51.46,6 64.72,18.06 13.27,12.07 20.34,32.06 21.27,59.93 0.27,7.46 0.47,13.99 0.53,19.59 0.07,5.6 0.07,11.2 0,16.8 -0.06,5.6 -0.26,12.13 -0.53,19.6 -0.53,17.33 -3.4,31.53 -8.67,42.59 -5.26,11.07 -13.46,19.53 -24.53,25.4l37.6 117.99 -63.59 0 -30.4 -107.99 -13.6 0 0 107.99 -59.99 0zm59.99 -160.78l17.2 0c8.4,0 14.73,-1.94 19,-5.8 4.26,-3.87 6.6,-9.27 7,-16.2 0.4,-6.53 0.66,-13.4 0.8,-20.53 0.13,-7.07 0.13,-14.2 0,-21.4 -0.14,-7.07 -0.4,-13.93 -0.8,-20.46 -0.4,-7.07 -2.74,-12.47 -7,-16.33 -4.27,-3.74 -10.6,-5.67 -19,-5.67l-17.2 0 0 106.39z"/>
   <polygon id="_7" class="fil0" points="741.72,2090.97 741.72,1823.8 690.33,1823.8 690.33,1771.01 853.11,1771.01 853.11,1823.8 801.71,1823.8 801.71,2090.97 "/>
   <path id="_8" class="fil0" d="M1039.08 2094.97c-20.13,0 -36.26,-2.74 -48.39,-8.14 -12.13,-5.4 -21,-14 -26.6,-25.79 -5.6,-11.8 -8.73,-27.27 -9.4,-46.46 -0.4,-11.2 -0.73,-24 -0.86,-38.33 -0.27,-14.27 -0.34,-29.07 -0.34,-44.26 0,-15.2 0.07,-29.87 0.34,-44 0.13,-14.13 0.46,-26.6 0.86,-37.39 0.8,-20.27 4.14,-36.53 9.94,-48.8 5.73,-12.26 14.73,-21.13 26.79,-26.59 12,-5.47 27.93,-8.2 47.66,-8.2 28,0 48.46,6.13 61.33,18.46 12.86,12.33 20.13,32.86 21.86,61.53 0.4,6.13 0.6,13.46 0.6,21.86 0,8.53 -0.2,15.87 -0.6,22.13l-59.99 0c0.4,-7.46 0.6,-16.66 0.6,-27.73 0,-10.93 -0.2,-20.13 -0.6,-27.46 -0.4,-6.4 -2.6,-11.33 -6.6,-14.8 -4,-3.47 -9.53,-5.2 -16.6,-5.2 -7.73,0 -13.6,1.73 -17.66,5.2 -4.07,3.47 -6.33,8.4 -6.73,14.8 -0.8,14 -1.4,29.13 -1.8,45.26 -0.4,16.2 -0.6,32.79 -0.6,49.73 0,16.93 0.2,33.52 0.6,49.66 0.4,16.19 1,31.33 1.8,45.32 0.4,6.54 2.66,11.6 6.73,15.07 4.06,3.53 9.93,5.33 17.66,5.33 7.6,0 13.67,-1.8 18.33,-5.33 4.54,-3.47 7.14,-8.53 7.67,-15.07 0.27,-3.06 0.4,-7.13 0.53,-12.13 0,-5 0,-10 0,-15 -0.13,-5 -0.26,-9 -0.53,-12.06l-22 0 0 -51.99 80.39 0c0.67,12.13 0.94,25.46 0.8,39.86 -0.13,14.46 -0.53,27.86 -1.2,40.13 -1.33,28.79 -8.46,49.39 -21.46,61.79 -13,12.4 -33.86,18.6 -62.53,18.6z"/>
   <path id="_9" class="fil0" d="M1138.67 2090.97l44.4 -319.96 94.38 0 44.4 319.96 -61.6 0 -6.79 -66.8 -46.4 0 -6.8 66.8 -61.59 0zm73.99 -119.59l35.2 0 -7.2 -70.79 -4.8 -76.79 -11.2 0 -4.8 76.79 -7.2 70.79z"/>
   <polygon id="_10" class="fil0" points="1341.85,2090.97 1341.85,1771.01 1401.84,1771.01 1401.84,2038.17 1480.63,2038.17 1480.63,2090.97 "/>
   <polygon id="_11" class="fil1" points="1502.62,2090.97 1502.62,1771.01 1562.62,1771.01 1562.62,2038.17 1641.41,2038.17 1641.41,2090.97 "/>
   <polygon id="_12" class="fil1" points="1663.4,2090.97 1663.4,1771.01 1801.79,1771.01 1801.79,1823.8 1723.4,1823.8 1723.4,1901.79 1797.79,1901.79 1797.79,1954.58 1723.4,1954.58 1723.4,2038.17 1801.79,2038.17 1801.79,2090.97 "/>
   <path id="_13" class="fil1" d="M1826.58 2090.97l0 -319.96 77.19 0c29.87,0 51.46,6 64.73,18.06 13.26,12.07 20.33,32.06 21.26,59.93 0.27,7.46 0.47,13.99 0.54,19.59 0.06,5.6 0.06,11.2 0,16.8 -0.07,5.6 -0.27,12.13 -0.54,19.6 -0.53,17.33 -3.4,31.53 -8.66,42.59 -5.27,11.07 -13.47,19.53 -24.53,25.4l37.59 117.99 -63.59 0 -30.4 -107.99 -13.59 0 0 107.99 -60 0zm60 -160.78l17.19 0c8.4,0 14.74,-1.94 19,-5.8 4.27,-3.87 6.6,-9.27 7,-16.2 0.4,-6.53 0.67,-13.4 0.8,-20.53 0.13,-7.07 0.13,-14.2 0,-21.4 -0.13,-7.07 -0.4,-13.93 -0.8,-20.46 -0.4,-7.07 -2.73,-12.47 -7,-16.33 -4.26,-3.74 -10.6,-5.67 -19,-5.67l-17.19 0 0 106.39z"/>
   <polygon id="_14" class="fil1" points="2048.35,2090.97 2048.35,2014.98 2048.35,2014.58 1988.36,1771.01 2049.55,1771.01 2066.75,1848.6 2072.75,1942.59 2083.95,1942.59 2089.95,1848.6 2107.15,1771.01 2168.34,1771.01 2108.35,2014.58 2108.35,2014.98 2108.35,2090.97 "/>
   <polygon class="fil1" points="1482.36,1529.05 1503.01,1684.14 1513.41,1684.14 1502.22,1554.16 1497.42,1416.98 1555.41,1416.98 1555.41,1736.94 1482.36,1736.94 "/>
   <polygon class="fil0" points="1370.23,1736.94 1370.23,1416.98 1457.02,1416.98 1481.02,1518.96 1482.36,1529.05 1482.36,1736.94 1464.22,1736.94 1440.22,1632.15 1423.82,1469.37 1412.63,1469.37 1423.03,1614.15 1428.22,1736.94 "/>
  </g>
 </g>
</svg>
