<?xml version="1.0" encoding="UTF-8"?>
<!DOCTYPE svg PUBLIC "-//W3C//DTD SVG 1.0//EN" "http://www.w3.org/TR/2001/REC-SVG-20010904/DTD/svg10.dtd">
<!-- Creator: CorelDRAW 2021 (64-Bit) -->
<svg xmlns="http://www.w3.org/2000/svg" xml:space="preserve" width="5807px" height="2132px" version="1.0" style="shape-rendering:geometricPrecision; text-rendering:geometricPrecision; image-rendering:optimizeQuality; fill-rule:evenodd; clip-rule:evenodd"
viewBox="0 0 5807 2132.3"
 xmlns:xlink="http://www.w3.org/1999/xlink"
 xmlns:xodm="http://www.corel.com/coreldraw/odm/2003">
 <defs>
  <style type="text/css">
   <![CDATA[
    .fil1 {fill:#151515;fill-rule:nonzero}
    .fil0 {fill:white;fill-rule:nonzero}
   ]]>
  </style>
 </defs>
 <g id="Layer_x0020_1">
  <metadata id="CorelCorpID_0Corel-Layer"/>
  <g id="_2005614970176">
   <polygon class="fil0" points="37.15,1013.09 37.15,13.28 338.35,13.28 420.85,391.94 437.1,848.1 469.59,848.1 484.56,391.94 568.31,13.28 868.26,13.28 868.26,1013.09 680.8,1013.09 680.8,705.64 717.05,178.24 683.3,178.24 630.8,718.14 553.31,1013.09 352.1,1013.09 275.86,718.14 222.14,178.24 189.64,178.24 224.64,705.64 224.64,1013.09 "/>
   <path id="_1" class="fil0" d="M1228.17 1025.59c-91.62,0 -158.08,-19.37 -198.89,-58.12 -41.06,-38.75 -62.72,-103.12 -64.78,-193.08 -0.84,-40.84 -1.47,-83.34 -1.88,-127.49 -0.43,-44.16 -0.62,-88.94 -0.62,-134.34 0,-45.4 0.19,-90.21 0.62,-134.37 0.41,-44.15 1.03,-86.65 1.88,-127.46 2.06,-89.58 23.72,-153.74 64.78,-192.27 40.81,-38.52 107.27,-57.68 198.89,-57.68 92.09,0 158.11,19.16 198.11,57.68 40,38.53 61.44,102.69 64.34,192.27 1.69,41.66 2.94,84.56 3.75,128.71 0.84,44.16 1.25,88.75 1.25,133.93 0,45.22 -0.41,90 -1.25,133.74 -0.81,43.94 -2.06,86.44 -3.75,127.28 -2.9,89.96 -24.34,154.33 -64.34,193.08 -40,38.75 -106.02,58.12 -198.11,58.12zm0 -152.49c24.59,0 43.12,-5.63 55.62,-16.66 12.5,-10.84 18.97,-26.65 19.37,-47.09 2.1,-42.46 3.57,-89.12 4.38,-139.96 0.84,-50.81 1.25,-103.08 1.25,-156.83 0,-53.75 -0.41,-106.02 -1.25,-156.86 -0.81,-50.81 -2.28,-97.47 -4.38,-139.96 -0.4,-20 -7.06,-35.41 -19.99,-46.25 -12.91,-10.84 -31.25,-16.25 -55,-16.25 -23.72,0 -42.06,5.41 -55.18,16.25 -13.13,10.84 -20.19,26.25 -21.03,46.25 -1.69,42.49 -2.91,89.15 -3.97,139.96 -1.03,50.84 -1.66,103.11 -1.66,156.86 0,53.75 0.63,106.02 1.66,156.83 1.06,50.84 2.28,97.5 3.97,139.96 0.84,20.44 7.9,36.25 21.03,47.09 13.12,11.04 31.46,16.66 55.18,16.66z"/>
   <path id="_2" class="fil0" d="M1588.74 1013.09l0 -999.81 253.7 0c93.75,0 161.65,19.78 203.52,59.56 41.84,39.78 63.53,105.4 65.18,196.64 1.25,57.9 2.1,112.9 2.5,164.96 0.41,52.06 0.41,104.15 0,156.21 -0.4,52.09 -1.25,107.09 -2.5,164.99 -1.65,91.65 -23.34,157.46 -65.18,197.45 -41.87,40 -109.77,60 -203.52,60l-253.7 0zm187.46 -164.99l66.24 0c26.25,0 46.25,-6.03 60,-18.12 13.75,-12.06 20.81,-29.34 21.25,-51.84 1.25,-44.59 2.06,-88.97 2.9,-133.12 0.41,-44.15 0.85,-88.31 0.85,-132.46 0,-44.15 -0.44,-88.53 -0.85,-132.9 -0.84,-44.15 -1.65,-88.52 -2.9,-132.68 -0.44,-22.09 -7.5,-38.96 -21.25,-51.02 -13.75,-11.69 -33.75,-17.72 -60,-17.72l-66.24 0 0 669.86z"/>
   <polygon id="_3" class="fil0" points="2207.39,1013.09 2207.39,13.28 2639.8,13.28 2639.8,178.24 2394.84,178.24 2394.84,421.94 2627.3,421.94 2627.3,586.9 2394.84,586.9 2394.84,848.1 2639.8,848.1 2639.8,1013.09 "/>
   <path id="_4" class="fil0" d="M2717.29 1013.09l0 -999.81 241.17 0c93.34,0 160.84,18.75 202.27,56.43 41.44,37.72 63.53,100.18 66.43,187.27 0.85,23.31 1.47,43.75 1.69,61.22 0.19,17.5 0.19,35 0,52.49 -0.22,17.5 -0.84,37.91 -1.69,61.25 -1.65,54.15 -10.62,98.53 -27.06,133.09 -16.46,34.59 -42.09,61.05 -76.65,79.37l117.46 368.69 -198.7 0 -94.96 -337.45 -42.5 0 0 337.45 -187.46 0 0 0zm187.46 -502.4l53.71 0c26.25,0 46.06,-6.07 59.38,-18.13 13.34,-12.09 20.62,-28.97 21.87,-50.62 1.25,-20.41 2.09,-41.87 2.5,-64.15 0.41,-22.1 0.41,-44.38 0,-66.87 -0.41,-22.07 -1.25,-43.53 -2.5,-63.94 -1.25,-22.09 -8.53,-38.96 -21.87,-51.03 -13.32,-11.68 -33.13,-17.71 -59.38,-17.71l-53.71 0 0 332.44 0 0.01z"/>
   <path id="_5" class="fil0" d="M-0.31 2120.58l138.71 -999.81 294.95 0 138.71 999.81 -192.46 0 -21.25 -208.73 -144.96 0 -21.25 208.73 -192.45 0zm231.2 -373.69l109.96 0 -22.5 -221.21 -15 -239.95 -34.99 0 -15 239.95 -22.47 221.21z"/>
   <path id="_6" class="fil0" d="M634.55 2120.58l0 -999.81 241.2 0c93.31,0 160.81,18.75 202.24,56.44 41.47,37.71 63.56,100.18 66.47,187.27 0.84,23.31 1.47,43.71 1.65,61.21 0.22,17.5 0.22,35 0,52.5 -0.19,17.5 -0.81,37.9 -1.65,61.24 -1.66,54.15 -10.63,98.53 -27.1,133.09 -16.43,34.59 -42.06,61.02 -76.65,79.37l117.5 368.69 -198.71 0 -94.99 -337.45 -42.5 0 0 337.45 -187.46 0zm187.46 -502.4l53.74 0c26.25,0 46.03,-6.06 59.38,-18.13 13.31,-12.09 20.62,-28.96 21.87,-50.62 1.25,-20.4 2.06,-41.87 2.5,-64.15 0.41,-22.09 0.41,-44.37 0,-66.87 -0.44,-22.09 -1.25,-43.53 -2.5,-63.94 -1.25,-22.09 -8.56,-38.96 -21.87,-51.02 -13.35,-11.69 -33.13,-17.72 -59.38,-17.72l-53.74 0 0 332.45 0 0z"/>
   <polygon id="_7" class="fil0" points="1348.79,2120.58 1348.79,1285.73 1188.2,1285.73 1188.2,1120.77 1696.86,1120.77 1696.86,1285.73 1536.24,1285.73 1536.24,2120.58 "/>
   <path id="_8" class="fil0" d="M2277.98 2133.08c-62.91,0 -113.31,-8.56 -151.21,-25.43 -37.91,-16.88 -65.62,-43.75 -83.12,-80.59 -17.5,-36.88 -27.28,-85.22 -29.38,-145.18 -1.24,-35 -2.28,-75 -2.68,-119.77 -0.85,-44.6 -1.07,-90.84 -1.07,-138.31 0,-47.5 0.22,-93.34 1.07,-137.49 0.4,-44.15 1.44,-83.12 2.68,-116.84 2.5,-63.34 12.94,-114.15 31.07,-152.49 17.9,-38.31 46.02,-66.02 83.71,-83.09 37.5,-17.09 87.27,-25.62 148.93,-25.62 87.49,0 151.42,19.16 191.64,57.68 40.18,38.53 62.9,102.68 68.31,192.27 1.25,19.16 1.87,42.06 1.87,68.31 0,26.66 -0.62,49.59 -1.87,69.15l-187.46 0c1.25,-23.31 1.88,-52.06 1.88,-86.65 0,-34.15 -0.63,-62.9 -1.88,-85.81 -1.25,-19.99 -8.12,-35.4 -20.62,-46.24 -12.5,-10.85 -29.78,-16.25 -51.87,-16.25 -24.16,0 -42.5,5.4 -55.19,16.25 -12.72,10.84 -19.78,26.25 -21.03,46.24 -2.5,43.75 -4.37,91.03 -5.62,141.43 -1.25,50.62 -1.88,102.46 -1.88,155.4 0,52.9 0.63,104.74 1.88,155.18 1.25,50.59 3.12,97.9 5.62,141.61 1.25,20.44 8.31,36.25 21.03,47.09 12.69,11.03 31.03,16.66 55.19,16.66 23.74,0 42.71,-5.63 57.27,-16.66 14.19,-10.84 22.31,-26.65 23.97,-47.09 0.84,-9.56 1.25,-22.28 1.66,-37.9 0,-15.63 0,-31.25 0,-46.88 -0.41,-15.62 -0.82,-28.12 -1.66,-37.68l-68.74 0 0 -162.46 251.2 0c2.09,37.9 2.94,79.56 2.5,124.56 -0.41,45.18 -1.66,87.05 -3.75,125.39 -4.16,89.97 -26.44,154.34 -67.06,193.08 -40.62,38.75 -105.81,58.13 -195.39,58.13l0 0z"/>
   <path id="_9" class="fil0" d="M2589.18 2120.58l138.74 -999.81 294.92 0 138.74 999.81 -192.49 0 -21.22 -208.73 -144.99 0 -21.25 208.73 -192.45 0zm231.2 -373.69l109.99 0 -22.5 -221.21 -15 -239.95 -34.99 0 -15 239.95 -22.5 221.21z"/>
   <polygon id="_10" class="fil0" points="3224.07,2120.58 3224.07,1120.77 3411.53,1120.77 3411.53,1955.59 3657.73,1955.59 3657.73,2120.58 "/>
   <polygon id="_11" class="fil1" points="3726.45,2120.58 3726.45,1120.77 3913.93,1120.77 3913.93,1955.59 4160.14,1955.59 4160.14,2120.58 "/>
   <polygon id="_12" class="fil1" points="4228.85,2120.58 4228.85,1120.77 4661.29,1120.77 4661.29,1285.73 4416.34,1285.73 4416.34,1529.43 4648.79,1529.43 4648.79,1694.39 4416.34,1694.39 4416.34,1955.59 4661.29,1955.59 4661.29,2120.58 "/>
   <path id="_13" class="fil1" d="M4738.76 2120.58l0 -999.81 241.2 0c93.34,0 160.8,18.75 202.27,56.44 41.43,37.71 63.53,100.18 66.43,187.27 0.84,23.31 1.47,43.71 1.69,61.21 0.19,17.5 0.19,35 0,52.5 -0.22,17.5 -0.85,37.9 -1.69,61.24 -1.66,54.15 -10.62,98.53 -27.06,133.09 -16.47,34.59 -42.09,61.02 -76.65,79.37l117.46 368.69 -198.71 0 -94.99 -337.45 -42.47 0 0 337.45 -187.48 0zm187.48 -502.4l53.72 0c26.25,0 46.06,-6.06 59.37,-18.13 13.34,-12.09 20.62,-28.96 21.87,-50.62 1.25,-20.4 2.1,-41.87 2.5,-64.15 0.41,-22.09 0.41,-44.37 0,-66.87 -0.4,-22.09 -1.24,-43.53 -2.5,-63.94 -1.25,-22.09 -8.53,-38.96 -21.87,-51.02 -13.31,-11.69 -33.12,-17.72 -59.37,-17.72l-53.72 0 0 332.45 0 0z"/>
   <polygon id="_14" class="fil1" points="5431.74,2120.58 5431.74,1883.13 5431.74,1881.88 5244.29,1120.77 5435.49,1120.77 5489.24,1363.22 5507.99,1656.92 5542.99,1656.92 5561.73,1363.22 5615.48,1120.77 5806.69,1120.77 5619.23,1881.88 5619.23,1883.13 5619.23,2120.58 "/>
   <polygon class="fil1" points="3663.14,364.7 3727.67,849.32 3760.16,849.32 3725.2,443.16 3710.2,14.5 3891.4,14.5 3891.4,1014.31 3663.14,1014.31 "/>
   <polygon class="fil0" points="3312.75,1014.31 3312.75,14.5 3583.96,14.5 3658.95,333.17 3663.14,364.7 3663.14,1014.31 3606.45,1014.31 3531.46,686.86 3480.21,178.21 3445.25,178.21 3477.74,630.61 3493.96,1014.31 "/>
  </g>
 </g>
</svg>
